<?xml version="1.0" encoding="UTF-8" standalone="no" ?>
<!DOCTYPE svg PUBLIC "-//W3C//DTD SVG 1.1//EN" "http://www.w3.org/Graphics/SVG/1.1/DTD/svg11.dtd">
<svg xmlns="http://www.w3.org/2000/svg" xmlns:xlink="http://www.w3.org/1999/xlink" version="1.1" width="1080" height="1080" viewBox="0 0 1080 1080" xml:space="preserve">
<desc>Created with Fabric.js 5.2.4</desc>
<defs>
</defs>
<g transform="matrix(1 0 0 1 540 540)" id="3b1f16ef-ce0e-4714-abde-728283e538fb"  >
<rect style="stroke: none; stroke-width: 1; stroke-dasharray: none; stroke-linecap: butt; stroke-dashoffset: 0; stroke-linejoin: miter; stroke-miterlimit: 4; fill: rgb(255,255,255); fill-rule: nonzero; opacity: 1; visibility: hidden;" vector-effect="non-scaling-stroke"  x="-540" y="-540" rx="0" ry="0" width="1080" height="1080" />
</g>
<g transform="matrix(1 0 0 1 540 540)" id="cad44d63-769c-4b17-821c-c8af754f40ce"  >
</g>
<g transform="matrix(1 0 0 1 540 540)" id="3b8d4567-9814-4164-aa29-73771dbc3d6c"  >
<path style="stroke: rgb(255,255,255); stroke-width: 0; stroke-dasharray: none; stroke-linecap: butt; stroke-dashoffset: 0; stroke-linejoin: miter; stroke-miterlimit: 4; fill: rgb(255,255,255); fill-rule: nonzero; opacity: 1;" vector-effect="non-scaling-stroke"  transform=" translate(-480, 480)" d="M 479.765 -340 Q 538 -340 579 -380.765 Q 620 -421.529 620 -479.765 Q 620 -538 579.235 -579 Q 538.471 -620 480.235 -620 Q 422 -620 381 -579.235 Q 340 -538.471 340 -480.235 Q 340 -422 380.765 -381 Q 421.529 -340 479.765 -340 Z M 480 -280 Q 397 -280 338.5 -338.5 Q 280 -397 280 -480 Q 280 -563 338.5 -621.5 Q 397 -680 480 -680 Q 563 -680 621.5 -621.5 Q 680 -563 680 -480 Q 680 -397 621.5 -338.5 Q 563 -280 480 -280 Z M 70 -450 Q 57.25 -450 48.625 -458.675 Q 40 -467.351 40 -480.175 Q 40 -493 48.625 -501.5 Q 57.25 -510 70 -510 L 170 -510 Q 182.75 -510 191.375 -501.325 Q 200 -492.649 200 -479.825 Q 200 -467 191.375 -458.5 Q 182.75 -450 170 -450 L 70 -450 Z M 790 -450 Q 777.25 -450 768.625 -458.675 Q 760 -467.351 760 -480.175 Q 760 -493 768.625 -501.5 Q 777.25 -510 790 -510 L 890 -510 Q 902.75 -510 911.375 -501.325 Q 920 -492.649 920 -479.825 Q 920 -467 911.375 -458.5 Q 902.75 -450 890 -450 L 790 -450 Z M 479.825 -760 Q 467 -760 458.5 -768.625 Q 450 -777.25 450 -790 L 450 -890 Q 450 -902.75 458.675 -911.375 Q 467.351 -920 480.175 -920 Q 493 -920 501.5 -911.375 Q 510 -902.75 510 -890 L 510 -790 Q 510 -777.25 501.325 -768.625 Q 492.649 -760 479.825 -760 Z M 479.825 -40 Q 467 -40 458.5 -48.625 Q 450 -57.25 450 -70 L 450 -170 Q 450 -182.75 458.675 -191.375 Q 467.351 -200 480.175 -200 Q 493 -200 501.5 -191.375 Q 510 -182.75 510 -170 L 510 -70 Q 510 -57.25 501.325 -48.625 Q 492.649 -40 479.825 -40 Z M 240 -678 L 183 -734 Q 174 -743 174.371 -755.603 Q 174.741 -768.207 182.89700000000002 -777.103 Q 191.793 -786 204.39700000000002 -786 Q 217 -786 226 -777 L 282 -720 Q 290 -711 290 -699 Q 290 -687 282 -678.5 Q 274 -670 261.5 -670 Q 249 -670 240 -678 Z M 734 -183 L 678 -240 Q 670 -249 670 -261.375 Q 670 -273.75 678.5 -282 Q 687 -291 699 -291 Q 711 -291 720 -282 L 777 -226 Q 786 -217 785.629 -204.397 Q 785.259 -191.793 777.1030000000001 -182.897 Q 768.2070000000001 -174 755.6030000000001 -174 Q 743 -174 734 -183 Z M 678 -678 Q 669 -687 669 -699 Q 669 -711 678 -720 L 734 -777 Q 743 -786 755.603 -785.629 Q 768.207 -785.259 777.103 -777.1030000000001 Q 786 -768.2070000000001 786 -755.6030000000001 Q 786 -743 777 -734 L 720 -678 Q 712 -670 699.636 -670 Q 687.2729999999999 -670 678 -678 Z M 182.897 -182.897 Q 174 -191.793 174 -204.397 Q 174 -217 183 -226 L 240 -282 Q 248.8 -291 260.9 -291 Q 273 -291 281.609 -282 Q 291 -273 291 -261 Q 291 -249 282 -240 L 226 -183 Q 217 -174 204.397 -174.371 Q 191.793 -174.741 182.897 -182.89700000000002 Z M 480 -480 Z" stroke-linecap="round" />
</g>
</svg>